<svg width="751" height="121" viewBox="0 0 751 121" fill="none" xmlns="http://www.w3.org/2000/svg">
<path d="M227.096 115.28C222.061 115.28 217.325 114.555 212.888 113.104C208.451 111.653 204.397 109.605 200.728 106.96C197.059 104.229 193.901 100.987 191.256 97.232C188.611 93.392 186.563 89.168 185.112 84.56C183.661 79.8667 182.936 74.8747 182.936 69.584C182.936 64.3787 183.661 59.5147 185.112 54.992C186.563 50.4693 188.611 46.416 191.256 42.832C193.901 39.248 197.059 36.176 200.728 33.616C204.397 30.9707 208.451 28.9653 212.888 27.6C217.325 26.1493 222.061 25.3813 227.096 25.296C231.363 25.296 234.989 25.7227 237.976 26.576C240.963 27.344 243.395 28.1973 245.272 29.136C247.149 30.0747 248.472 30.8 249.24 31.312C250.264 31.9093 251.245 32.6347 252.184 33.488C253.208 34.256 253.805 35.1093 253.976 36.048C254.147 36.9013 254.104 37.5413 253.848 37.968C253.677 38.3947 253.464 38.8213 253.208 39.248C252.867 39.8453 252.44 40.272 251.928 40.528C251.416 40.784 250.861 40.912 250.264 40.912C249.496 40.912 248.813 40.656 248.216 40.144C247.619 39.632 246.851 39.0773 245.912 38.48C245.4 38.1387 244.291 37.5413 242.584 36.688C240.877 35.8347 238.659 35.024 235.928 34.256C233.283 33.488 230.168 33.104 226.584 33.104C221.464 33.104 216.685 34 212.248 35.792C207.896 37.584 204.099 40.144 200.856 43.472C197.613 46.7147 195.096 50.5973 193.304 55.12C191.512 59.6427 190.616 64.6773 190.616 70.224C190.616 75.7707 191.512 80.848 193.304 85.456C195.096 89.9787 197.613 93.904 200.856 97.232C204.099 100.475 207.896 102.992 212.248 104.784C216.685 106.576 221.464 107.472 226.584 107.472C230.168 107.472 233.283 107.088 235.928 106.32C238.659 105.552 240.877 104.741 242.584 103.888C244.291 102.949 245.4 102.352 245.912 102.096C246.851 101.584 247.619 101.072 248.216 100.56C248.813 100.048 249.496 99.792 250.264 99.792C250.861 99.792 251.416 99.92 251.928 100.176C252.44 100.347 252.867 100.731 253.208 101.328C253.464 101.669 253.677 102.096 253.848 102.608C254.104 103.12 254.147 103.803 253.976 104.656C253.805 105.595 253.208 106.491 252.184 107.344C251.245 108.112 250.264 108.795 249.24 109.392C248.472 109.819 247.107 110.544 245.144 111.568C243.267 112.507 240.835 113.36 237.848 114.128C234.861 114.896 231.277 115.28 227.096 115.28Z" fill="black"/>
<path d="M292.099 115.92C287.832 115.92 283.822 115.109 280.067 113.488C276.312 111.867 272.984 109.648 270.083 106.832C267.267 104.016 265.048 100.731 263.427 96.976C261.806 93.2213 260.995 89.2107 260.995 84.944C260.995 80.592 261.763 76.5813 263.299 72.912C264.92 69.1573 267.139 65.872 269.955 63.056C272.856 60.1547 276.142 57.936 279.811 56.4C283.566 54.7787 287.576 53.968 291.843 53.968C297.56 53.968 302.723 55.3333 307.331 58.064C311.939 60.7093 315.608 64.3787 318.339 69.072C321.07 73.68 322.435 78.928 322.435 84.816C322.435 89.2533 321.624 93.3493 320.003 97.104C318.467 100.859 316.291 104.144 313.475 106.96C310.744 109.776 307.544 111.995 303.875 113.616C300.206 115.152 296.28 115.92 292.099 115.92ZM291.843 109.008C296.195 109.008 300.12 107.941 303.619 105.808C307.203 103.589 310.019 100.645 312.067 96.976C314.2 93.2213 315.267 89.0827 315.267 84.56C315.267 79.952 314.243 75.856 312.195 72.272C310.147 68.688 307.331 65.9147 303.747 63.952C300.248 61.904 296.238 60.88 291.715 60.88C287.278 60.88 283.267 61.9467 279.683 64.08C276.184 66.128 273.368 68.944 271.235 72.528C269.187 76.112 268.163 80.1653 268.163 84.688C268.163 89.296 269.187 93.4347 271.235 97.104C273.368 100.773 276.227 103.675 279.811 105.808C283.395 107.941 287.406 109.008 291.843 109.008Z" fill="black"/>
<path d="M334.556 115.28C333.703 115.28 333.02 115.152 332.508 114.896C331.996 114.64 331.612 114.256 331.356 113.744C331.185 113.147 331.1 112.379 331.1 111.44V57.68C331.1 56.8267 331.185 56.1867 331.356 55.76C331.612 55.248 331.996 54.9067 332.508 54.736C333.105 54.48 333.831 54.352 334.684 54.352C335.879 54.352 336.732 54.608 337.244 55.12C337.756 55.632 338.012 56.4853 338.012 57.68V65.36C338.78 63.568 339.847 61.9893 341.212 60.624C342.663 59.2587 344.284 58.1067 346.076 57.168C347.868 56.144 349.703 55.376 351.58 54.864C353.543 54.352 355.42 54.096 357.212 54.096C360.284 54.096 363.015 54.6933 365.404 55.888C367.879 57.0827 370.055 58.7893 371.932 61.008C373.809 63.1413 375.388 65.7867 376.668 68.944C378.631 65.5307 380.593 62.7573 382.556 60.624C384.604 58.4053 386.865 56.784 389.34 55.76C391.9 54.6507 394.759 54.096 397.916 54.096C402.78 54.096 406.791 55.2907 409.948 57.68C413.191 60.0693 415.623 63.3973 417.244 67.664C418.865 71.9307 419.676 76.9653 419.676 82.768V111.568C419.676 112.507 419.548 113.275 419.292 113.872C419.121 114.384 418.78 114.725 418.268 114.896C417.756 115.152 417.031 115.28 416.092 115.28C415.153 115.28 414.385 115.152 413.788 114.896C413.276 114.64 412.892 114.256 412.636 113.744C412.465 113.147 412.38 112.379 412.38 111.44V82.64C412.38 78.288 411.825 74.4907 410.716 71.248C409.692 67.92 408.113 65.36 405.98 63.568C403.847 61.6907 401.073 60.752 397.66 60.752C394.076 60.752 390.876 61.6907 388.06 63.568C385.244 65.36 383.025 67.92 381.404 71.248C379.783 74.4907 378.972 78.288 378.972 82.64V111.696C378.972 112.805 378.673 113.659 378.076 114.256C377.564 114.939 376.881 115.323 376.028 115.408C375.26 115.579 374.535 115.493 373.852 115.152C373.34 114.981 372.913 114.725 372.572 114.384C372.231 114.128 371.975 113.744 371.804 113.232C371.719 112.72 371.676 112.123 371.676 111.44V82.64C371.676 78.288 371.121 74.4907 370.012 71.248C368.988 67.92 367.409 65.36 365.276 63.568C363.143 61.6907 360.369 60.752 356.956 60.752C353.372 60.752 350.172 61.6907 347.356 63.568C344.54 65.36 342.321 67.92 340.7 71.248C339.079 74.4907 338.268 78.288 338.268 82.64V111.568C338.268 112.507 338.14 113.275 337.884 113.872C337.713 114.384 337.329 114.725 336.732 114.896C336.22 115.152 335.495 115.28 334.556 115.28Z" fill="black"/>
<path d="M460.001 115.664C455.308 115.664 450.998 114.896 447.073 113.36C443.233 111.824 439.905 109.648 437.089 106.832C434.358 104.016 432.225 100.688 430.689 96.848C429.153 93.008 428.385 88.7413 428.385 84.048C428.385 78.5013 429.708 73.5093 432.353 69.072C434.998 64.6347 438.668 61.136 443.361 58.576C448.054 55.9307 453.43 54.608 459.489 54.608C463.414 54.608 466.998 55.2053 470.241 56.4C473.484 57.5947 476.3 59.216 478.689 61.264C481.078 63.312 482.913 65.6587 484.193 68.304C485.558 70.9493 486.241 73.68 486.241 76.496C486.241 80.6773 485.26 83.536 483.297 85.072C481.42 86.5227 479.116 87.248 476.385 87.248H436.065C435.894 91.7707 437.004 95.6533 439.393 98.896C441.868 102.139 444.94 104.656 448.609 106.448C452.364 108.155 456.118 109.008 459.873 109.008C462.348 109.008 464.481 108.88 466.273 108.624C468.15 108.368 469.729 108.027 471.009 107.6C472.374 107.088 473.526 106.619 474.465 106.192C475.404 105.68 476.257 105.211 477.025 104.784C477.793 104.272 478.518 103.888 479.201 103.632C479.628 103.461 480.097 103.419 480.609 103.504C481.206 103.504 481.633 103.717 481.889 104.144C482.316 104.741 482.614 105.296 482.785 105.808C482.956 106.235 483.041 106.747 483.041 107.344C483.041 108.112 482.017 109.179 479.969 110.544C477.921 111.824 475.148 112.976 471.649 114C468.15 115.109 464.268 115.664 460.001 115.664ZM436.065 81.104H474.209C475.916 81.104 477.238 80.9333 478.177 80.592C479.116 80.1653 479.585 78.8853 479.585 76.752C479.585 73.936 478.689 71.376 476.897 69.072C475.19 66.6827 472.844 64.7627 469.857 63.312C466.87 61.8613 463.457 61.136 459.617 61.136C455.35 61.136 451.382 61.9893 447.713 63.696C444.129 65.4027 441.27 67.792 439.137 70.864C437.004 73.8507 435.98 77.264 436.065 81.104Z" fill="black"/>
<path d="M521.968 115.408C518.043 115.408 514.331 114.683 510.832 113.232C507.419 111.781 504.432 109.691 501.872 106.96C499.312 104.229 497.307 100.987 495.856 97.232C494.405 93.392 493.68 89.168 493.68 84.56C493.68 80.0373 494.405 75.9413 495.856 72.272C497.307 68.5173 499.312 65.3173 501.872 62.672C504.432 59.9413 507.419 57.8507 510.832 56.4C514.331 54.9493 518.043 54.224 521.968 54.224C526.149 54.224 529.989 54.9493 533.488 56.4C536.987 57.8507 540.016 59.9413 542.576 62.672C545.136 65.4027 547.099 68.6453 548.464 72.4C549.915 76.1547 550.64 80.336 550.64 84.944C550.64 89.552 549.915 93.7333 548.464 97.488C547.099 101.157 545.136 104.357 542.576 107.088C540.016 109.733 536.987 111.781 533.488 113.232C529.989 114.683 526.149 115.408 521.968 115.408ZM523.12 108.624C527.387 108.624 531.184 107.643 534.512 105.68C537.84 103.632 540.485 100.859 542.448 97.36C544.411 93.776 545.392 89.6373 545.392 84.944C545.392 80.1653 544.411 75.984 542.448 72.4C540.485 68.816 537.797 66.0427 534.384 64.08C531.056 62.032 527.301 61.008 523.12 61.008C518.939 61.008 515.141 62.032 511.728 64.08C508.315 66.0427 505.627 68.816 503.664 72.4C501.701 75.984 500.72 80.1653 500.72 84.944C500.72 89.6373 501.701 93.776 503.664 97.36C505.627 100.859 508.315 103.632 511.728 105.68C515.141 107.643 518.939 108.624 523.12 108.624ZM549.488 115.408C548.123 115.408 547.141 115.109 546.544 114.512C546.032 113.915 545.776 112.933 545.776 111.568V30.032C545.776 29.008 545.861 28.24 546.032 27.728C546.288 27.1307 546.672 26.704 547.184 26.448C547.781 26.192 548.507 26.064 549.36 26.064C550.299 26.064 551.024 26.192 551.536 26.448C552.048 26.704 552.432 27.1307 552.688 27.728C552.944 28.24 553.072 28.9653 553.072 29.904V111.44C553.072 112.379 552.944 113.147 552.688 113.744C552.517 114.341 552.176 114.768 551.664 115.024C551.152 115.28 550.427 115.408 549.488 115.408Z" fill="black"/>
<path d="M591.224 115.92C586.957 115.92 582.947 115.109 579.192 113.488C575.437 111.867 572.109 109.648 569.208 106.832C566.392 104.016 564.173 100.731 562.552 96.976C560.931 93.2213 560.12 89.2107 560.12 84.944C560.12 80.592 560.888 76.5813 562.424 72.912C564.045 69.1573 566.264 65.872 569.08 63.056C571.981 60.1547 575.267 57.936 578.936 56.4C582.691 54.7787 586.701 53.968 590.968 53.968C596.685 53.968 601.848 55.3333 606.456 58.064C611.064 60.7093 614.733 64.3787 617.464 69.072C620.195 73.68 621.56 78.928 621.56 84.816C621.56 89.2533 620.749 93.3493 619.128 97.104C617.592 100.859 615.416 104.144 612.6 106.96C609.869 109.776 606.669 111.995 603 113.616C599.331 115.152 595.405 115.92 591.224 115.92ZM590.968 109.008C595.32 109.008 599.245 107.941 602.744 105.808C606.328 103.589 609.144 100.645 611.192 96.976C613.325 93.2213 614.392 89.0827 614.392 84.56C614.392 79.952 613.368 75.856 611.32 72.272C609.272 68.688 606.456 65.9147 602.872 63.952C599.373 61.904 595.363 60.88 590.84 60.88C586.403 60.88 582.392 61.9467 578.808 64.08C575.309 66.128 572.493 68.944 570.36 72.528C568.312 76.112 567.288 80.1653 567.288 84.688C567.288 89.296 568.312 93.4347 570.36 97.104C572.493 100.773 575.352 103.675 578.936 105.808C582.52 107.941 586.531 109.008 590.968 109.008Z" fill="black"/>
<path d="M633.681 115.408C632.828 115.408 632.145 115.28 631.633 115.024C631.121 114.768 630.737 114.341 630.481 113.744C630.31 113.147 630.225 112.379 630.225 111.44V58.064C630.225 57.04 630.31 56.272 630.481 55.76C630.737 55.1627 631.121 54.7787 631.633 54.608C632.145 54.4373 632.87 54.352 633.809 54.352C634.662 54.352 635.345 54.4373 635.857 54.608C636.454 54.7787 636.881 55.1627 637.137 55.76C637.393 56.272 637.521 57.04 637.521 58.064V63.44C638.374 61.9893 639.228 60.6667 640.081 59.472C640.934 58.2773 641.958 57.2533 643.153 56.4C644.348 55.4613 645.798 54.736 647.505 54.224C649.297 53.712 651.516 53.456 654.161 53.456C655.526 53.456 656.764 53.584 657.873 53.84C659.068 54.096 660.134 54.4373 661.073 54.864C662.097 55.2907 662.95 55.76 663.633 56.272C664.316 56.784 664.828 57.296 665.169 57.808C665.51 58.32 665.681 58.832 665.681 59.344C665.681 60.4533 665.212 61.392 664.273 62.16C663.334 62.928 662.481 63.312 661.713 63.312C660.774 63.312 660.049 63.184 659.537 62.928C659.11 62.5867 658.641 62.2027 658.129 61.776C657.617 61.3493 656.849 61.008 655.825 60.752C654.801 60.4107 653.222 60.24 651.089 60.24C649.809 60.24 648.401 60.5387 646.865 61.136C645.329 61.648 643.836 62.4587 642.385 63.568C641.02 64.6773 639.868 66.128 638.929 67.92C637.99 69.712 637.521 71.8453 637.521 74.32V111.696C637.521 112.635 637.393 113.403 637.137 114C636.966 114.512 636.582 114.853 635.985 115.024C635.473 115.28 634.705 115.408 633.681 115.408Z" fill="black"/>
<path d="M679.196 115.408C678.343 115.408 677.617 115.28 677.02 115.024C676.508 114.768 676.124 114.384 675.868 113.872C675.697 113.275 675.612 112.507 675.612 111.568V58.064C675.612 57.1253 675.697 56.4 675.868 55.888C676.124 55.2907 676.508 54.9067 677.02 54.736C677.617 54.48 678.385 54.352 679.324 54.352C680.263 54.352 680.988 54.48 681.5 54.736C682.012 54.992 682.353 55.4187 682.524 56.016C682.78 56.528 682.908 57.296 682.908 58.32V111.696C682.908 112.635 682.78 113.403 682.524 114C682.353 114.512 681.969 114.853 681.372 115.024C680.86 115.28 680.135 115.408 679.196 115.408ZM679.196 35.92C678.001 35.92 677.063 35.7493 676.38 35.408C675.697 35.0667 675.185 34.512 674.844 33.744C674.588 32.976 674.46 31.9947 674.46 30.8C674.46 29.6053 674.588 28.6667 674.844 27.984C675.185 27.3013 675.697 26.832 676.38 26.576C677.148 26.2347 678.129 26.064 679.324 26.064C680.519 26.064 681.457 26.2347 682.14 26.576C682.823 26.9173 683.292 27.472 683.548 28.24C683.889 28.9227 684.06 29.904 684.06 31.184C684.06 32.2933 683.889 33.232 683.548 34C683.292 34.6827 682.823 35.1947 682.14 35.536C681.457 35.792 680.476 35.92 679.196 35.92Z" fill="black"/>
<path d="M746.964 115.28C745.769 115.28 744.916 114.981 744.404 114.384C743.892 113.787 743.551 112.677 743.38 111.056V102.48C742.441 104.101 740.948 105.936 738.9 107.984C736.937 109.947 734.335 111.696 731.092 113.232C727.935 114.683 724.095 115.408 719.572 115.408C715.391 115.408 711.508 114.64 707.924 113.104C704.425 111.483 701.353 109.264 698.708 106.448C696.063 103.632 693.972 100.389 692.436 96.72C690.985 92.9653 690.26 88.912 690.26 84.56C690.26 80.3787 690.985 76.496 692.436 72.912C693.972 69.2427 696.063 66.0427 698.708 63.312C701.439 60.496 704.553 58.32 708.052 56.784C711.636 55.1627 715.476 54.352 719.572 54.352C723.583 54.352 726.996 54.864 729.812 55.888C732.713 56.912 735.231 58.32 737.364 60.112C739.583 61.904 741.588 63.9947 743.38 66.384V59.088C743.38 57.3813 743.636 56.1867 744.148 55.504C744.745 54.736 745.727 54.352 747.092 54.352C747.945 54.352 748.585 54.5227 749.012 54.864C749.524 55.12 749.865 55.5893 750.036 56.272C750.292 56.9547 750.42 57.8933 750.42 59.088V111.056C750.42 112.08 750.292 112.933 750.036 113.616C749.865 114.213 749.524 114.64 749.012 114.896C748.5 115.152 747.817 115.28 746.964 115.28ZM720.98 108.752C725.076 108.752 728.788 107.728 732.116 105.68C735.444 103.547 738.089 100.688 740.052 97.104C742.015 93.52 742.996 89.424 742.996 84.816C742.996 79.952 741.972 75.728 739.924 72.144C737.876 68.56 735.145 65.7867 731.732 63.824C728.404 61.776 724.735 60.752 720.724 60.752C716.031 60.752 711.935 61.8187 708.436 63.952C704.937 66.0853 702.207 68.9867 700.244 72.656C698.281 76.24 697.3 80.3787 697.3 85.072C697.3 89.5947 698.281 93.648 700.244 97.232C702.207 100.816 704.98 103.632 708.564 105.68C712.148 107.728 716.287 108.752 720.98 108.752Z" fill="black"/>
<path d="M79.9513 2.67683C76.0715 6.5566 76.314 10.6789 80.4362 14.0737C82.8611 16.0135 84.316 16.256 85.5284 14.3161C86.2559 13.1037 85.7709 11.8913 84.5585 11.8913C83.1036 11.8913 81.8912 10.1939 81.8912 8.01152C81.8912 1.22192 90.3782 5.34418 91.1056 12.6187C92.0755 21.3482 81.8912 25.9555 70.9793 21.5907C58.6125 16.741 53.0354 16.0135 49.1556 19.1659C40.4261 26.4404 48.9131 40.9896 61.7648 40.9896C64.6747 40.9896 68.7969 43.4144 70.7368 46.3243L74.6166 51.6589V46.5667C74.6166 40.7471 68.312 36.1399 60.7949 36.1399C53.5203 36.1399 47.4582 30.5627 49.3981 25.713C51.338 20.6208 56.6726 20.3783 67.827 24.9855C82.1336 31.0477 96.4403 24.2581 96.4403 11.6488C96.4403 1.94938 86.2559 -3.62779 79.9513 2.67683Z" fill="black"/>
<path d="M46.7309 9.95137C41.3962 12.8612 38.2439 16.741 38.2439 20.1358C38.2439 21.3482 40.6688 20.1358 43.8211 17.2259C47.2159 14.0736 52.5506 11.8913 57.4003 11.8913C62.0075 11.8913 64.6748 10.9213 63.7049 9.46639C61.765 6.31408 52.793 6.55657 46.7309 9.95137Z" fill="black"/>
<path d="M101.048 19.6508C99.3502 22.8031 96.4404 26.4404 94.5005 27.8953C92.0757 29.5927 91.8332 31.0476 93.5306 32.2601C96.4404 33.9575 106.14 22.8031 106.14 17.7109C106.14 12.8612 104.2 13.5887 101.048 19.6508Z" fill="black"/>
<path d="M21.2698 65.7231C18.6025 68.6329 16.4201 72.7552 16.4201 74.6951C16.6626 77.3624 18.36 76.635 21.9973 71.7852C29.7568 62.5708 34.6065 63.5407 41.8811 75.665C51.823 92.8815 50.8531 94.3364 29.7568 94.3364C19.8149 94.3364 11.5704 93.609 11.5704 92.8815C11.5704 92.1541 12.7828 89.4867 13.9952 86.8194C15.9351 83.6671 15.6926 82.2121 13.9952 82.2121C12.5403 82.2121 10.8429 84.152 9.87299 86.3344C9.14553 88.7593 6.2357 92.639 3.32588 94.8214C-3.22124 100.156 0.173562 106.703 11.0854 109.856C15.2077 111.31 19.0874 114.22 19.5724 116.645C20.7848 120.767 24.6646 121.01 72.1918 121.01C119.719 121.01 123.599 120.767 124.811 116.645C125.296 114.22 129.176 111.31 133.298 109.856C143.725 106.703 147.605 99.9136 141.543 95.5489C139.118 93.609 134.511 86.5769 131.358 80.0298C128.206 73.2402 124.569 67.663 123.114 67.663C121.659 67.663 123.356 72.9977 126.751 79.7873C130.146 86.3344 132.813 92.3965 132.813 93.124C132.813 93.8514 124.569 94.3364 114.627 94.3364C93.5306 94.3364 92.5606 92.8815 102.503 75.665C106.625 69.1179 110.505 65.2381 113.414 65.2381C116.082 65.2381 118.264 64.0257 118.264 62.8133C118.264 59.4185 110.262 59.661 106.625 63.2983C104.442 65.4806 102.987 65.4806 100.805 63.2983C97.1678 59.661 88.6808 59.4185 85.0435 63.0558C83.1037 64.9957 81.1638 64.7532 77.5265 62.5708C73.6467 60.1459 71.2219 60.1459 66.3722 62.3283C62.4924 64.0257 59.5826 64.2682 58.8551 62.8133C56.6727 59.4185 46.9733 59.9035 43.5785 63.2983C41.3961 65.4806 39.9412 65.4806 37.7588 63.2983C33.3941 58.9335 26.847 59.9035 21.2698 65.7231ZM56.4302 67.9055C57.4002 69.1179 56.6727 73.7251 55.2178 77.6049L52.0655 84.8795L47.9432 78.0899C45.7609 74.4526 44.306 69.8454 45.0334 68.148C46.2458 64.5107 54.2479 64.2682 56.4302 67.9055ZM85.0435 79.7873L92.0756 93.124L80.9213 93.8514C74.6167 94.3364 70.2519 95.5488 70.9794 97.0038C71.9493 98.2162 87.9534 99.1861 106.867 99.1861C138.148 99.1861 140.815 99.4286 137.178 103.066C135.238 105.248 127.479 107.673 120.446 108.886C113.172 109.856 110.262 110.825 114.142 111.068C117.779 111.068 120.689 112.28 120.689 113.735C120.689 115.19 102.987 116.16 72.1918 116.16C41.3961 116.16 23.6947 115.19 23.6947 113.735C23.6947 112.28 39.2138 111.068 64.4323 110.825L104.927 110.34L58.3701 109.128C18.36 107.916 11.0854 107.188 7.44813 103.551C3.56836 99.4286 4.78079 99.1861 32.6666 99.1861C49.8831 99.1861 62.7349 98.2162 63.7048 96.7613C64.4323 95.3064 62.4924 94.3364 59.0976 94.3364C53.2779 94.3364 53.0354 93.8514 55.4603 87.7893C56.9152 84.152 60.31 77.3624 62.9774 72.9977C70.0094 61.3584 76.3141 63.2982 85.0435 79.7873ZM98.1378 68.148C99.8352 70.3303 99.3502 73.4827 96.4404 78.0899L92.3181 84.637L89.6508 78.5749C87.9534 75.1801 86.741 70.8153 86.741 68.8754C86.741 64.5107 94.9855 64.0257 98.1378 68.148Z" fill="black"/>
<path d="M28.5444 70.0879C28.5444 71.3003 29.7569 72.5127 31.2118 72.5127C32.4242 72.5127 32.9092 71.3003 32.1817 70.0879C31.4543 68.6329 30.2418 67.663 29.5144 67.663C29.0294 67.663 28.5444 68.6329 28.5444 70.0879Z" fill="black"/>
<path d="M101.29 87.0618C101.29 88.2743 102.503 89.4867 103.957 89.4867C105.17 89.4867 105.655 88.2743 104.927 87.0618C104.2 85.6069 102.988 84.637 102.26 84.637C101.775 84.637 101.29 85.6069 101.29 87.0618Z" fill="black"/>
<path d="M120.689 87.0618C120.689 88.2743 121.901 89.4867 123.356 89.4867C124.569 89.4867 125.054 88.2743 124.326 87.0618C123.599 85.6069 122.386 84.637 121.659 84.637C121.174 84.637 120.689 85.6069 120.689 87.0618Z" fill="black"/>
</svg>
