<svg width="146" height="24" viewBox="0 0 146 24" fill="none" xmlns="http://www.w3.org/2000/svg">
<path d="M44.6991 22.281C43.7261 22.281 42.8107 22.1408 41.9531 21.8604C41.0954 21.5801 40.312 21.1842 39.6028 20.6729C38.8936 20.1452 38.2834 19.5184 37.7721 18.7927C37.2608 18.0506 36.865 17.2342 36.5846 16.3435C36.3042 15.4364 36.164 14.4716 36.164 13.449C36.164 12.4429 36.3042 11.5028 36.5846 10.6287C36.865 9.75458 37.2608 8.97116 37.7721 8.27845C38.2834 7.58575 38.8936 6.992 39.6028 6.49721C40.312 5.98593 41.0954 5.59834 41.9531 5.33445C42.8107 5.05407 43.7261 4.90563 44.6991 4.88914C45.5238 4.88914 46.2247 4.97161 46.802 5.13654C47.3793 5.28497 47.8493 5.4499 48.2122 5.63133C48.575 5.81275 48.8306 5.95294 48.9791 6.0519C49.177 6.16735 49.3667 6.30754 49.5481 6.47247C49.746 6.62091 49.8615 6.78584 49.8944 6.96726C49.9274 7.13219 49.9192 7.25589 49.8697 7.33835C49.8367 7.42082 49.7955 7.50328 49.746 7.58575C49.68 7.7012 49.5976 7.78366 49.4986 7.83314C49.3996 7.88262 49.2924 7.90736 49.177 7.90736C49.0286 7.90736 48.8966 7.85788 48.7812 7.75892C48.6657 7.65997 48.5173 7.55276 48.3359 7.43731C48.2369 7.37134 48.0225 7.25589 47.6926 7.09096C47.3628 6.92603 46.9339 6.76934 46.4062 6.62091C45.8949 6.47247 45.2929 6.39825 44.6002 6.39825C43.6106 6.39825 42.687 6.57143 41.8294 6.91778C40.9882 7.26413 40.2543 7.75892 39.6275 8.40215C39.0008 9.02889 38.5143 9.77932 38.1679 10.6534C37.8216 11.5276 37.6484 12.5007 37.6484 13.5727C37.6484 14.6448 37.8216 15.6261 38.1679 16.5167C38.5143 17.3908 39.0008 18.1495 39.6275 18.7927C40.2543 19.4195 40.9882 19.906 41.8294 20.2524C42.687 20.5987 43.6106 20.7719 44.6002 20.7719C45.2929 20.7719 45.8949 20.6977 46.4062 20.5492C46.9339 20.4008 47.3628 20.2441 47.6926 20.0792C48.0225 19.8978 48.2369 19.7823 48.3359 19.7328C48.5173 19.6339 48.6657 19.5349 48.7812 19.436C48.8966 19.337 49.0286 19.2875 49.177 19.2875C49.2924 19.2875 49.3996 19.3123 49.4986 19.3617C49.5976 19.3947 49.68 19.469 49.746 19.5844C49.7955 19.6504 49.8367 19.7328 49.8697 19.8318C49.9192 19.9308 49.9274 20.0627 49.8944 20.2276C49.8615 20.4091 49.746 20.5822 49.5481 20.7472C49.3667 20.8956 49.177 21.0275 48.9791 21.143C48.8306 21.2255 48.5668 21.3656 48.1874 21.5636C47.8246 21.745 47.3545 21.9099 46.7773 22.0584C46.2 22.2068 45.5073 22.281 44.6991 22.281Z" fill="white"/>
<path d="M57.2628 22.4047C56.4381 22.4047 55.6629 22.248 54.9372 21.9347C54.2115 21.6213 53.5683 21.1925 53.0076 20.6482C52.4633 20.1039 52.0345 19.469 51.7211 18.7433C51.4077 18.0176 51.2511 17.2424 51.2511 16.4177C51.2511 15.5766 51.3995 14.8014 51.6964 14.0922C52.0097 13.3665 52.4385 12.7316 52.9828 12.1873C53.5436 11.6265 54.1786 11.1977 54.8878 10.9008C55.6135 10.5875 56.3886 10.4308 57.2133 10.4308C58.3183 10.4308 59.3161 10.6947 60.2067 11.2225C61.0974 11.7337 61.8066 12.4429 62.3343 13.3501C62.8621 14.2407 63.126 15.255 63.126 16.393C63.126 17.2506 62.9693 18.0423 62.656 18.768C62.3591 19.4937 61.9385 20.1287 61.3942 20.6729C60.8665 21.2172 60.248 21.646 59.5388 21.9594C58.8296 22.2563 58.0709 22.4047 57.2628 22.4047ZM57.2133 21.0688C58.0544 21.0688 58.8131 20.8626 59.4893 20.4503C60.182 20.0215 60.7263 19.4525 61.1221 18.7433C61.5344 18.0176 61.7406 17.2177 61.7406 16.3435C61.7406 15.4529 61.5427 14.6612 61.1469 13.9685C60.751 13.2758 60.2068 12.7398 59.514 12.3605C58.8378 11.9646 58.0627 11.7667 57.1885 11.7667C56.3309 11.7667 55.5557 11.9729 54.863 12.3852C54.1868 12.781 53.6425 13.3253 53.2302 14.018C52.8344 14.7107 52.6365 15.4941 52.6365 16.3683C52.6365 17.2589 52.8344 18.0588 53.2302 18.768C53.6425 19.4772 54.1951 20.038 54.8878 20.4503C55.5805 20.8626 56.3556 21.0688 57.2133 21.0688Z" fill="white"/>
<path d="M65.4687 22.281C65.3038 22.281 65.1719 22.2563 65.0729 22.2068C64.9739 22.1573 64.8997 22.0831 64.8502 21.9841C64.8172 21.8687 64.8008 21.7202 64.8008 21.5388V11.1482C64.8008 10.9833 64.8172 10.8596 64.8502 10.7771C64.8997 10.6782 64.9739 10.6122 65.0729 10.5792C65.1883 10.5297 65.3285 10.505 65.4935 10.505C65.7244 10.505 65.8893 10.5545 65.9883 10.6534C66.0872 10.7524 66.1367 10.9173 66.1367 11.1482V12.6326C66.2851 12.2863 66.4913 11.9811 66.7552 11.7172C67.0356 11.4534 67.3489 11.2307 67.6953 11.0493C68.0416 10.8514 68.3962 10.7029 68.7591 10.604C69.1384 10.505 69.5013 10.4555 69.8476 10.4555C70.4414 10.4555 70.9691 10.571 71.4309 10.8019C71.9092 11.0328 72.3298 11.3626 72.6927 11.7915C73.0555 12.2038 73.3606 12.7151 73.608 13.3253C73.9874 12.6656 74.3667 12.1296 74.746 11.7172C75.1419 11.2884 75.5789 10.9751 76.0572 10.7771C76.552 10.5627 77.1045 10.4555 77.7148 10.4555C78.6549 10.4555 79.43 10.6864 80.0403 11.1482C80.667 11.61 81.1371 12.2533 81.4504 13.0779C81.7638 13.9026 81.9205 14.8757 81.9205 15.9972V21.5636C81.9205 21.745 81.8957 21.8934 81.8463 22.0089C81.8133 22.1078 81.7473 22.1738 81.6484 22.2068C81.5494 22.2563 81.4092 22.281 81.2278 22.281C81.0464 22.281 80.8979 22.2563 80.7825 22.2068C80.6835 22.1573 80.6093 22.0831 80.5598 21.9841C80.5268 21.8687 80.5103 21.7202 80.5103 21.5388V15.9724C80.5103 15.1313 80.4031 14.3974 80.1887 13.7706C79.9908 13.1274 79.6857 12.6326 79.2734 12.2863C78.861 11.9234 78.325 11.742 77.6653 11.742C76.9726 11.742 76.3541 11.9234 75.8098 12.2863C75.2656 12.6326 74.8367 13.1274 74.5234 13.7706C74.21 14.3974 74.0533 15.1313 74.0533 15.9724V21.5883C74.0533 21.8027 73.9956 21.9676 73.8802 22.0831C73.7812 22.215 73.6493 22.2893 73.4843 22.3057C73.3359 22.3387 73.1957 22.3222 73.0637 22.2563C72.9648 22.2233 72.8823 22.1738 72.8164 22.1078C72.7504 22.0584 72.7009 21.9841 72.6679 21.8852C72.6514 21.7862 72.6432 21.6708 72.6432 21.5388V15.9724C72.6432 15.1313 72.536 14.3974 72.3216 13.7706C72.1236 13.1274 71.8185 12.6326 71.4062 12.2863C70.9939 11.9234 70.4579 11.742 69.7981 11.742C69.1054 11.742 68.4869 11.9234 67.9427 12.2863C67.3984 12.6326 66.9696 13.1274 66.6562 13.7706C66.3429 14.3974 66.1862 15.1313 66.1862 15.9724V21.5636C66.1862 21.745 66.1614 21.8934 66.112 22.0089C66.079 22.1078 66.0047 22.1738 65.8893 22.2068C65.7903 22.2563 65.6501 22.281 65.4687 22.281Z" fill="white"/>
<path d="M89.7144 22.3552C88.8073 22.3552 87.9744 22.2068 87.2157 21.9099C86.4735 21.613 85.8303 21.1925 85.286 20.6482C84.7583 20.1039 84.3459 19.4607 84.0491 18.7185C83.7522 17.9763 83.6037 17.1517 83.6037 16.2446C83.6037 15.1725 83.8594 14.2077 84.3707 13.3501C84.8819 12.4924 85.5911 11.8162 86.4983 11.3214C87.4054 10.8101 88.4444 10.5545 89.6154 10.5545C90.3741 10.5545 91.0668 10.6699 91.6936 10.9008C92.3203 11.1317 92.8646 11.4451 93.3264 11.8409C93.7882 12.2368 94.1428 12.6903 94.3902 13.2016C94.654 13.7129 94.786 14.2407 94.786 14.7849C94.786 15.5931 94.5963 16.1456 94.217 16.4425C93.8541 16.7229 93.4088 16.8631 92.8811 16.8631H85.0881C85.0551 17.7372 85.2695 18.4876 85.7313 19.1144C86.2096 19.7411 86.8034 20.2276 87.5126 20.574C88.2383 20.9038 88.964 21.0688 89.6897 21.0688C90.168 21.0688 90.5803 21.044 90.9266 20.9946C91.2895 20.9451 91.5946 20.8791 91.842 20.7966C92.1059 20.6977 92.3285 20.607 92.51 20.5245C92.6914 20.4255 92.8563 20.3348 93.0048 20.2524C93.1532 20.1534 93.2934 20.0792 93.4253 20.0297C93.5078 19.9967 93.5985 19.9885 93.6975 20.005C93.8129 20.005 93.8954 20.0462 93.9449 20.1287C94.0273 20.2441 94.085 20.3513 94.118 20.4503C94.151 20.5328 94.1675 20.6317 94.1675 20.7472C94.1675 20.8956 93.9696 21.1018 93.5738 21.3656C93.1779 21.613 92.6419 21.8357 91.9657 22.0336C91.2895 22.248 90.539 22.3552 89.7144 22.3552ZM85.0881 15.6756H92.4605C92.7903 15.6756 93.046 15.6426 93.2274 15.5766C93.4088 15.4941 93.4995 15.2467 93.4995 14.8344C93.4995 14.2902 93.3264 13.7954 92.98 13.3501C92.6502 12.8882 92.1966 12.5172 91.6193 12.2368C91.0421 11.9564 90.3824 11.8162 89.6402 11.8162C88.8155 11.8162 88.0486 11.9811 87.3394 12.311C86.6467 12.6409 86.0942 13.1027 85.6819 13.6964C85.2695 14.2737 85.0716 14.9334 85.0881 15.6756Z" fill="white"/>
<path d="M101.691 22.3057C100.933 22.3057 100.215 22.1656 99.5389 21.8852C98.8792 21.6048 98.3019 21.2007 97.8071 20.6729C97.3123 20.1452 96.9247 19.5184 96.6444 18.7927C96.364 18.0506 96.2238 17.2342 96.2238 16.3435C96.2238 15.4694 96.364 14.6777 96.6444 13.9685C96.9247 13.2428 97.3123 12.6244 97.8071 12.1131C98.3019 11.5853 98.8792 11.1812 99.5389 10.9008C100.215 10.6205 100.933 10.4803 101.691 10.4803C102.499 10.4803 103.242 10.6205 103.918 10.9008C104.594 11.1812 105.179 11.5853 105.674 12.1131C106.169 12.6409 106.548 13.2676 106.812 13.9933C107.093 14.719 107.233 15.5271 107.233 16.4177C107.233 17.3084 107.093 18.1165 106.812 18.8422C106.548 19.5514 106.169 20.1699 105.674 20.6977C105.179 21.209 104.594 21.6048 103.918 21.8852C103.242 22.1656 102.499 22.3057 101.691 22.3057ZM101.914 20.9946C102.739 20.9946 103.472 20.8049 104.116 20.4255C104.759 20.0297 105.27 19.4937 105.65 18.8175C106.029 18.1248 106.219 17.3249 106.219 16.4177C106.219 15.4941 106.029 14.686 105.65 13.9933C105.27 13.3006 104.751 12.7645 104.091 12.3852C103.448 11.9894 102.722 11.7915 101.914 11.7915C101.106 11.7915 100.372 11.9894 99.7121 12.3852C99.0523 12.7645 98.5328 13.3006 98.1535 13.9933C97.7741 14.686 97.5845 15.4941 97.5845 16.4177C97.5845 17.3249 97.7741 18.1248 98.1535 18.8175C98.5328 19.4937 99.0523 20.0297 99.7121 20.4255C100.372 20.8049 101.106 20.9946 101.914 20.9946ZM107.01 22.3057C106.746 22.3057 106.557 22.248 106.441 22.1326C106.342 22.0171 106.293 21.8275 106.293 21.5636V5.8045C106.293 5.60659 106.309 5.45815 106.342 5.35919C106.392 5.24374 106.466 5.16128 106.565 5.1118C106.68 5.06232 106.821 5.03758 106.985 5.03758C107.167 5.03758 107.307 5.06232 107.406 5.1118C107.505 5.16128 107.579 5.24374 107.629 5.35919C107.678 5.45815 107.703 5.59834 107.703 5.77976V21.5388C107.703 21.7202 107.678 21.8687 107.629 21.9841C107.596 22.0996 107.53 22.1821 107.431 22.2315C107.332 22.281 107.192 22.3057 107.01 22.3057Z" fill="white"/>
<path d="M115.077 22.4047C114.252 22.4047 113.477 22.248 112.751 21.9347C112.026 21.6213 111.382 21.1925 110.822 20.6482C110.277 20.1039 109.849 19.469 109.535 18.7433C109.222 18.0176 109.065 17.2424 109.065 16.4177C109.065 15.5766 109.214 14.8014 109.51 14.0922C109.824 13.3665 110.253 12.7316 110.797 12.1873C111.358 11.6265 111.993 11.1977 112.702 10.9008C113.428 10.5875 114.203 10.4308 115.027 10.4308C116.132 10.4308 117.13 10.6947 118.021 11.2225C118.911 11.7337 119.621 12.4429 120.148 13.3501C120.676 14.2407 120.94 15.255 120.94 16.393C120.94 17.2506 120.783 18.0423 120.47 18.768C120.173 19.4937 119.753 20.1287 119.208 20.6729C118.681 21.2172 118.062 21.646 117.353 21.9594C116.644 22.2563 115.885 22.4047 115.077 22.4047ZM115.027 21.0688C115.868 21.0688 116.627 20.8626 117.303 20.4503C117.996 20.0215 118.54 19.4525 118.936 18.7433C119.349 18.0176 119.555 17.2177 119.555 16.3435C119.555 15.4529 119.357 14.6612 118.961 13.9685C118.565 13.2758 118.021 12.7398 117.328 12.3605C116.652 11.9646 115.877 11.7667 115.003 11.7667C114.145 11.7667 113.37 11.9729 112.677 12.3852C112.001 12.781 111.457 13.3253 111.044 14.018C110.648 14.7107 110.451 15.4941 110.451 16.3683C110.451 17.2589 110.648 18.0588 111.044 18.768C111.457 19.4772 112.009 20.038 112.702 20.4503C113.395 20.8626 114.17 21.0688 115.027 21.0688Z" fill="white"/>
<path d="M123.283 22.3057C123.118 22.3057 122.986 22.281 122.887 22.2315C122.788 22.1821 122.714 22.0996 122.664 21.9841C122.631 21.8687 122.615 21.7202 122.615 21.5388V11.2225C122.615 11.0245 122.631 10.8761 122.664 10.7771C122.714 10.6617 122.788 10.5875 122.887 10.5545C122.986 10.5215 123.126 10.505 123.308 10.505C123.472 10.505 123.604 10.5215 123.703 10.5545C123.819 10.5875 123.901 10.6617 123.951 10.7771C124 10.8761 124.025 11.0245 124.025 11.2225V12.2615C124.19 11.9811 124.355 11.7255 124.52 11.4946C124.685 11.2637 124.883 11.0658 125.114 10.9008C125.344 10.7194 125.625 10.5792 125.955 10.4803C126.301 10.3813 126.73 10.3318 127.241 10.3318C127.505 10.3318 127.744 10.3566 127.959 10.406C128.189 10.4555 128.396 10.5215 128.577 10.604C128.775 10.6864 128.94 10.7771 129.072 10.8761C129.204 10.9751 129.303 11.074 129.369 11.173C129.435 11.2719 129.468 11.3709 129.468 11.4698C129.468 11.6843 129.377 11.8657 129.196 12.0141C129.014 12.1626 128.849 12.2368 128.701 12.2368C128.519 12.2368 128.379 12.212 128.28 12.1626C128.198 12.0966 128.107 12.0224 128.008 11.9399C127.909 11.8574 127.761 11.7915 127.563 11.742C127.365 11.676 127.06 11.643 126.647 11.643C126.4 11.643 126.128 11.7008 125.831 11.8162C125.534 11.9152 125.245 12.0718 124.965 12.2863C124.701 12.5007 124.479 12.781 124.297 13.1274C124.116 13.4737 124.025 13.8861 124.025 14.3644V21.5883C124.025 21.7697 124 21.9182 123.951 22.0336C123.918 22.1326 123.844 22.1985 123.728 22.2315C123.629 22.281 123.481 22.3057 123.283 22.3057Z" fill="white"/>
<path d="M132.08 22.3057C131.915 22.3057 131.775 22.281 131.659 22.2315C131.56 22.1821 131.486 22.1078 131.437 22.0089C131.404 21.8934 131.387 21.745 131.387 21.5636V11.2225C131.387 11.041 131.404 10.9008 131.437 10.8019C131.486 10.6864 131.56 10.6122 131.659 10.5792C131.775 10.5297 131.923 10.505 132.105 10.505C132.286 10.505 132.426 10.5297 132.525 10.5792C132.624 10.6287 132.69 10.7112 132.723 10.8266C132.773 10.9256 132.797 11.074 132.797 11.2719V21.5883C132.797 21.7697 132.773 21.9182 132.723 22.0336C132.69 22.1326 132.616 22.1985 132.5 22.2315C132.401 22.281 132.261 22.3057 132.08 22.3057ZM132.08 6.94252C131.849 6.94252 131.667 6.90953 131.536 6.84356C131.404 6.77759 131.305 6.67039 131.239 6.52195C131.189 6.37351 131.164 6.18384 131.164 5.95294C131.164 5.72204 131.189 5.54061 131.239 5.40867C131.305 5.27673 131.404 5.18602 131.536 5.13654C131.684 5.07056 131.874 5.03758 132.105 5.03758C132.335 5.03758 132.517 5.07056 132.649 5.13654C132.781 5.20251 132.871 5.30971 132.921 5.45815C132.987 5.59009 133.02 5.77976 133.02 6.02716C133.02 6.24157 132.987 6.42299 132.921 6.57143C132.871 6.70337 132.781 6.80233 132.649 6.8683C132.517 6.91778 132.327 6.94252 132.08 6.94252Z" fill="white"/>
<path d="M145.178 22.281C144.947 22.281 144.782 22.2233 144.683 22.1078C144.584 21.9924 144.518 21.778 144.485 21.4646V19.8071C144.304 20.1204 144.015 20.475 143.619 20.8709C143.24 21.2502 142.737 21.5883 142.11 21.8852C141.5 22.1656 140.758 22.3057 139.884 22.3057C139.075 22.3057 138.325 22.1573 137.632 21.8604C136.956 21.5471 136.362 21.1183 135.851 20.574C135.34 20.0297 134.936 19.403 134.639 18.6938C134.358 17.9681 134.218 17.1847 134.218 16.3435C134.218 15.5354 134.358 14.7849 134.639 14.0922C134.936 13.383 135.34 12.7645 135.851 12.2368C136.379 11.6925 136.981 11.2719 137.657 10.9751C138.35 10.6617 139.092 10.505 139.884 10.505C140.659 10.505 141.318 10.604 141.863 10.8019C142.424 10.9998 142.91 11.2719 143.322 11.6183C143.751 11.9646 144.139 12.3687 144.485 12.8305V11.4204C144.485 11.0905 144.535 10.8596 144.634 10.7277C144.749 10.5792 144.939 10.505 145.203 10.505C145.368 10.505 145.491 10.538 145.574 10.604C145.673 10.6534 145.739 10.7442 145.772 10.8761C145.821 11.008 145.846 11.1895 145.846 11.4204V21.4646C145.846 21.6625 145.821 21.8275 145.772 21.9594C145.739 22.0748 145.673 22.1573 145.574 22.2068C145.475 22.2563 145.343 22.281 145.178 22.281ZM140.156 21.0193C140.947 21.0193 141.665 20.8214 142.308 20.4255C142.951 20.0132 143.463 19.4607 143.842 18.768C144.221 18.0753 144.411 17.2836 144.411 16.393C144.411 15.4529 144.213 14.6365 143.817 13.9438C143.421 13.2511 142.894 12.7151 142.234 12.3357C141.591 11.9399 140.881 11.742 140.106 11.742C139.199 11.742 138.407 11.9481 137.731 12.3605C137.055 12.7728 136.527 13.3336 136.148 14.0428C135.769 14.7355 135.579 15.5354 135.579 16.4425C135.579 17.3166 135.769 18.1 136.148 18.7927C136.527 19.4854 137.063 20.0297 137.756 20.4255C138.449 20.8214 139.249 21.0193 140.156 21.0193Z" fill="white"/>
<path d="M16.2594 0.517371C15.5095 1.26724 15.5564 2.06398 16.3531 2.72012C16.8218 3.09506 17.103 3.14192 17.3373 2.76699C17.4779 2.53265 17.3842 2.29832 17.1499 2.29832C16.8687 2.29832 16.6343 1.97025 16.6343 1.54844C16.6343 0.236169 18.2747 1.03291 18.4153 2.43892C18.6028 4.12613 16.6343 5.0166 14.5253 4.173C12.1351 3.23566 11.0572 3.09506 10.3073 3.70433C8.62009 5.11034 10.2604 7.92235 12.7444 7.92235C13.3068 7.92235 14.1035 8.39102 14.4785 8.95343L15.2283 9.9845V9.00029C15.2283 7.87549 14.0098 6.98501 12.5569 6.98501C11.1509 6.98501 9.97923 5.90707 10.3542 4.96973C10.7291 3.98553 11.7602 3.93866 13.9161 4.82913C16.6812 6.00081 19.4464 4.68853 19.4464 2.25145C19.4464 0.37677 17.4779 -0.70117 16.2594 0.517371Z" fill="white"/>
<path d="M9.83866 1.92337C8.80759 2.48578 8.19832 3.23565 8.19832 3.89179C8.19832 4.12612 8.66699 3.89179 9.27626 3.32938C9.9324 2.72011 10.9635 2.29831 11.9008 2.29831C12.7913 2.29831 13.3068 2.11084 13.1194 1.82964C12.7444 1.22037 11.0103 1.26724 9.83866 1.92337Z" fill="white"/>
<path d="M20.3369 3.79805C20.0088 4.40733 19.4464 5.11033 19.0714 5.39153C18.6028 5.7196 18.5559 6.0008 18.884 6.23514C19.4464 6.56321 21.3211 4.40733 21.3211 3.42312C21.3211 2.48578 20.9461 2.62638 20.3369 3.79805Z" fill="white"/>
<path d="M4.91761 12.7028C4.40208 13.2652 3.98027 14.0619 3.98027 14.4369C4.02714 14.9524 4.35521 14.8118 5.05821 13.8745C6.55796 12.0935 7.4953 12.281 8.90131 14.6243C10.8229 17.9519 10.6354 18.2331 6.55796 18.2331C4.63641 18.2331 3.04293 18.0925 3.04293 17.9519C3.04293 17.8113 3.27727 17.2958 3.5116 16.7802C3.88654 16.1709 3.83967 15.8897 3.5116 15.8897C3.2304 15.8897 2.90233 16.2647 2.71487 16.6865C2.57426 17.1552 2.01186 17.905 1.44946 18.3268C0.184048 19.3579 0.840186 20.6233 2.9492 21.2326C3.74594 21.5138 4.49581 22.0762 4.58954 22.5449C4.82388 23.3416 5.57375 23.3885 14.7597 23.3885C23.9456 23.3885 24.6955 23.3416 24.9298 22.5449C25.0235 22.0762 25.7734 21.5138 26.5702 21.2326C28.5854 20.6233 29.3353 19.311 28.1636 18.4674C27.695 18.0925 26.8045 16.7333 26.1952 15.4679C25.586 14.1557 24.8829 13.0777 24.6017 13.0777C24.3205 13.0777 24.6486 14.1088 25.3048 15.4211C25.9609 16.6865 26.4764 17.8582 26.4764 17.9988C26.4764 18.1394 24.8829 18.2331 22.9614 18.2331C18.884 18.2331 18.6965 17.9519 20.6181 14.6243C21.4148 13.3589 22.1647 12.6091 22.7271 12.6091C23.2426 12.6091 23.6644 12.3747 23.6644 12.1404C23.6644 11.4842 22.1178 11.5311 21.4148 12.2341C20.993 12.6559 20.7118 12.6559 20.29 12.2341C19.587 11.5311 17.9466 11.4842 17.2436 12.1872C16.8687 12.5622 16.4938 12.5153 15.7908 12.0935C15.0409 11.6248 14.5722 11.6248 13.6349 12.0466C12.885 12.3747 12.3226 12.4216 12.182 12.1404C11.7602 11.4842 9.88551 11.578 9.22938 12.2341C8.80757 12.6559 8.52637 12.6559 8.10457 12.2341C7.26096 11.3905 5.99555 11.578 4.91761 12.7028ZM11.7133 13.1246C11.9008 13.3589 11.7602 14.2494 11.479 14.9993L10.8697 16.4053L10.073 15.093C9.65118 14.39 9.36998 13.4995 9.51058 13.1715C9.74491 12.4685 11.2915 12.4216 11.7133 13.1246ZM17.2436 15.4211L18.6028 17.9988L16.4469 18.1394C15.2283 18.2331 14.3847 18.4674 14.5253 18.7486C14.7128 18.983 17.806 19.1704 21.4617 19.1704C27.5075 19.1704 28.023 19.2173 27.32 19.9203C26.9451 20.3421 25.4454 20.8108 24.0862 21.0451C22.6802 21.2326 22.1178 21.42 22.8677 21.4669C23.5707 21.4669 24.1331 21.7012 24.1331 21.9824C24.1331 22.2637 20.7118 22.4511 14.7597 22.4511C8.80757 22.4511 5.38628 22.2637 5.38628 21.9824C5.38628 21.7012 8.38577 21.4669 13.2599 21.42L21.0867 21.3263L12.0883 21.092C4.35521 20.8576 2.9492 20.717 2.2462 20.014C1.49632 19.2173 1.73066 19.1704 7.12036 19.1704C10.4479 19.1704 12.9319 18.983 13.1193 18.7018C13.2599 18.4206 12.885 18.2331 12.2289 18.2331C11.1041 18.2331 11.0572 18.1394 11.5259 16.9677C11.8071 16.2647 12.4632 14.9524 12.9787 14.1088C14.3379 11.8592 15.5564 12.2341 17.2436 15.4211ZM19.7744 13.1715C20.1025 13.5933 20.0088 14.2025 19.4464 15.093L18.6496 16.3584L18.1341 15.1867C17.806 14.5306 17.5717 13.687 17.5717 13.3121C17.5717 12.4685 19.1652 12.3747 19.7744 13.1715Z" fill="white"/>
<path d="M6.32363 13.5464C6.32363 13.7807 6.55796 14.0151 6.83917 14.0151C7.0735 14.0151 7.16724 13.7807 7.02663 13.5464C6.88603 13.2652 6.6517 13.0777 6.5111 13.0777C6.41736 13.0777 6.32363 13.2652 6.32363 13.5464Z" fill="white"/>
<path d="M20.3837 16.8271C20.3837 17.0614 20.6181 17.2957 20.8993 17.2957C21.1336 17.2957 21.2273 17.0614 21.0867 16.8271C20.9461 16.5459 20.7118 16.3584 20.5712 16.3584C20.4775 16.3584 20.3837 16.5459 20.3837 16.8271Z" fill="white"/>
<path d="M24.1331 16.8271C24.1331 17.0614 24.3674 17.2957 24.6486 17.2957C24.8829 17.2957 24.9767 17.0614 24.8361 16.8271C24.6955 16.5459 24.4611 16.3584 24.3205 16.3584C24.2268 16.3584 24.1331 16.5459 24.1331 16.8271Z" fill="white"/>
</svg>
